<svg xmlns="http://www.w3.org/2000/svg" fill="none" viewBox="0 0 20 20"><path d="M8 5c0-3 2-5 2-5s2 2 2 5-2 5-2 5-2-2-2-5Z" fill="#E3E9C5"/><path d="M15 8c3 0 5 2 5 2s-2 2-5 2-5-2-5-2 2-2 5-2ZM5 8c3 0 5 2 5 2s-2 2-5 2-5-2-5-2 2-2 5-2Z" fill="#E3E9C5"/><path d="M8 15c0-3 2-5 2-5s2 2 2 5-2 5-2 5-2-2-2-5Z" fill="#E3E9C5"/><path d="M5.046 7.872c-2.122-2.123-2.124-4.95-2.124-4.95s2.828.002 4.95 2.124c2.122 2.122 2.124 4.95 2.124 4.95s-2.827-.002-4.95-2.124Z" fill="#C1CAA0"/><path d="M7.887 14.937c-2.121 2.121-4.95 2.121-4.95 2.121s0-2.828 2.122-4.949c2.12-2.12 4.948-2.12 4.948-2.12s0 2.828-2.12 4.948Z" fill="#C1CAA0"/><path d="M12.12 14.94c-2.122-2.122-2.123-4.95-2.123-4.95s2.828.002 4.949 2.123c2.121 2.121 2.122 4.949 2.122 4.949s-2.827-.002-4.948-2.123Z" fill="#C1CAA0"/><path d="M12.118 5.044c2.122-2.122 4.95-2.124 4.95-2.124s-.002 2.828-2.124 4.95c-2.122 2.122-4.95 2.124-4.95 2.124s.002-2.828 2.124-4.95Z" fill="#C1CAA0"/></svg>